<svg id="visual" viewBox="0 0 900 600" width="900" height="600" xmlns="http://www.w3.org/2000/svg" xmlns:xlink="http://www.w3.org/1999/xlink" version="1.1"><g transform="translate(428.2334159713089 235.7487144160646)"><path d="M276.4 -383.4C336.5 -336.8 348.5 -226.9 370.9 -127.6C393.4 -28.3 426.4 60.5 418 151.2C409.7 241.9 360 334.5 283.5 409.6C206.9 484.8 103.5 542.4 0.3 542C-102.9 541.6 -205.7 483.2 -271.3 404.5C-337 325.8 -365.4 226.9 -373.4 136.8C-381.4 46.7 -369 -34.6 -342.8 -110.1C-316.5 -185.7 -276.4 -255.4 -217 -302.3C-157.5 -349.1 -78.8 -373.1 14.7 -393.3C108.2 -413.5 216.3 -430.1 276.4 -383.4" fill="none" stroke="#2b7fff" stroke-width="6"></path></g></svg>