<svg id="visual" viewBox="0 0 1920 1080" width="1920" height="1080" xmlns="http://www.w3.org/2000/svg" xmlns:xlink="http://www.w3.org/1999/xlink" version="1.1"><rect x="0" y="0" width="1920" height="1080" fill="#f3eef6"></rect><path d="M0 475L320 475L320 451L640 451L640 457L960 457L960 528L1280 528L1280 434L1600 434L1600 442L1920 442L1920 437L1920 0L1920 0L1600 0L1600 0L1280 0L1280 0L960 0L960 0L640 0L640 0L320 0L320 0L0 0Z" fill="#d6dbe0"></path><path d="M0 248L320 248L320 320L640 320L640 366L960 366L960 316L1280 316L1280 350L1600 350L1600 302L1920 302L1920 324L1920 0L1920 0L1600 0L1600 0L1280 0L1280 0L960 0L960 0L640 0L640 0L320 0L320 0L0 0Z" fill="#7eb1f3"></path><path d="M0 190L320 190L320 156L640 156L640 208L960 208L960 199L1280 199L1280 180L1600 180L1600 168L1920 168L1920 189L1920 0L1920 0L1600 0L1600 0L1280 0L1280 0L960 0L960 0L640 0L640 0L320 0L320 0L0 0Z" fill="#2b7fff"></path></svg>