<svg id="visual" viewBox="0 0 960 540" width="960" height="540" xmlns="http://www.w3.org/2000/svg" xmlns:xlink="http://www.w3.org/1999/xlink" version="1.1"><rect x="0" y="0" width="960" height="540" fill="#d1d5dc"></rect><path d="M0 221L137 156L274 179L411 170L549 141L686 148L823 160L960 205L960 0L823 0L686 0L549 0L411 0L274 0L137 0L0 0Z" fill="#d1d5dc"></path><path d="M0 173L137 119L274 160L411 183L549 136L686 163L823 131L960 108L960 0L823 0L686 0L549 0L411 0L274 0L137 0L0 0Z" fill="#acc1e7"></path><path d="M0 139L137 105L274 120L411 118L549 141L686 139L823 123L960 108L960 0L823 0L686 0L549 0L411 0L274 0L137 0L0 0Z" fill="#87acf1"></path><path d="M0 82L137 51L274 86L411 83L549 90L686 56L823 99L960 89L960 0L823 0L686 0L549 0L411 0L274 0L137 0L0 0Z" fill="#5f96f9"></path><path d="M0 42L137 60L274 52L411 36L549 39L686 59L823 40L960 60L960 0L823 0L686 0L549 0L411 0L274 0L137 0L0 0Z" fill="#2b7fff"></path></svg>