<svg id="visual" viewBox="0 0 900 600" width="900" height="600" xmlns="http://www.w3.org/2000/svg" xmlns:xlink="http://www.w3.org/1999/xlink" version="1.1"><path d="M0 156L129 218L257 212L386 206L514 238L643 164L771 171L900 245L900 0L771 0L643 0L514 0L386 0L257 0L129 0L0 0Z" fill="#d1d5dc"></path><path d="M0 193L129 122L257 198L386 168L514 168L643 140L771 173L900 155L900 0L771 0L643 0L514 0L386 0L257 0L129 0L0 0Z" fill="#acc1e7"></path><path d="M0 131L129 152L257 111L386 97L514 124L643 110L771 156L900 93L900 0L771 0L643 0L514 0L386 0L257 0L129 0L0 0Z" fill="#87acf1"></path><path d="M0 73L129 106L257 73L386 76L514 114L643 116L771 79L900 101L900 0L771 0L643 0L514 0L386 0L257 0L129 0L0 0Z" fill="#5f96f9"></path><path d="M0 36L129 58L257 55L386 45L514 63L643 52L771 69L900 69L900 0L771 0L643 0L514 0L386 0L257 0L129 0L0 0Z" fill="#2b7fff"></path></svg>