<svg id="visual" viewBox="0 0 960 540" width="960" height="540" xmlns="http://www.w3.org/2000/svg" xmlns:xlink="http://www.w3.org/1999/xlink" version="1.1"><rect x="0" y="0" width="960" height="540" fill="#e9e9e9"></rect><g transform="translate(462.6029505024697 170.3045920861726)"><path d="M175.6 -236.4C232.2 -200.6 285.9 -155.5 352.4 -83.2C418.9 -11 498.4 88.4 490.7 174.2C483.1 260 388.5 332.2 292.2 397.8C195.9 463.3 98 522.2 3.2 517.7C-91.5 513.3 -183 445.5 -250.4 370.6C-317.7 295.7 -361 213.5 -400.2 122.9C-439.4 32.3 -474.6 -66.6 -446 -141.9C-417.4 -217.2 -325.1 -268.8 -240.1 -295.4C-155.2 -321.9 -77.6 -323.5 -9 -311C59.5 -298.6 119 -272.2 175.6 -236.4" fill="none" stroke="#420cd3" stroke-width="6"></path></g></svg>